<svg xmlns="http://www.w3.org/2000/svg" viewBox="0 0 413 204" xmlns:xlink="http://www.w3.org/1999/xlink">
 <defs>
  <clipPath clipPathUnits="userSpaceOnUse" id="cp1">
   <path d="M0 0L413 0L413 204L0 204Z">
   </path>
  </clipPath>
 </defs>
 <style>
  tspan { white-space:pre }
		.shp0 { fill: #2c2e35 } 
		.shp1 { fill: #ffc141 }
 </style>
 <g id="Page 1" clip-path="url(#cp1)">
  <path id="Path 1" class="shp0" d="M351.23,102.04c0.17,-0.08 0.24,-0.15 0.3,-0.14c12.14,0.1 24.38,-1.41 36.37,1.07c12.19,2.52 20.88,10.8 23.57,23.9c1.78,8.71 1.36,17.2 -2.02,25.47c-3.43,8.34 -9.54,13.85 -17.89,16.41c-4.48,1.38 -9.3,2.05 -13.99,2.25c-8.23,0.35 -16.51,0.11 -24.77,0.11c-0.48,0 -0.96,-0.06 -1.59,-0.12v-68.95zM365.74,136.34c0,6.54 0.01,13.07 0,19.62c0,1.14 -0.05,2.11 1.57,2.06c4.47,-0.13 8.98,0.14 13.42,-0.29c6.58,-0.63 11.93,-3.61 14.69,-10.07c2.48,-5.78 2.64,-11.85 1.41,-17.97c-1.71,-8.55 -7.49,-13.86 -16.04,-14.54c-4.31,-0.35 -8.66,-0.19 -12.98,-0.41c-1.73,-0.08 -2.12,0.57 -2.09,2.2c0.06,6.48 0.02,12.94 0.02,19.4zM269.12,171.12c-5.77,0 -10.98,0.02 -16.19,-0.05c-0.5,0 -1.11,-0.53 -1.46,-0.98c-5.54,-7.24 -10.99,-14.52 -16.58,-21.71c-0.62,-0.79 -1.89,-1.38 -2.91,-1.47c-2.29,-0.22 -8.84,-0.11 -8.84,-0.11c0,0 -0.08,0.56 -0.06,2.09c0.06,6.47 0.02,12.93 0.02,19.4v2.68h-14.51v-69.05c0.57,-0.06 1.05,-0.16 1.53,-0.16c10,0.02 20,-0.05 30.01,0.12c5.01,0.07 9.77,1.44 14.15,4.06c5.93,3.55 8.78,9.04 9.25,15.78c0.22,2.99 -0.04,6.14 -0.68,9.07c-1.42,6.43 -5.64,10.6 -11.49,13.18c-0.75,0.33 -1.5,0.68 -2.47,1.12c6.71,8.64 13.31,17.12 20.24,26.04zM223.08,134.38c4.71,0 9.18,0.01 13.63,-0.01c1.17,0 2.38,0.01 3.54,-0.23c5.81,-1.16 8.75,-4.68 8.51,-10.07c-0.24,-5.16 -3.51,-8.57 -9.33,-9.01c-4.95,-0.37 -9.92,-0.19 -14.9,-0.29c-1.1,-0.04 -1.47,0.43 -1.46,1.5c0.04,2.7 0,5.41 0,8.11v9.99zM344.45,171.1c-4.88,0 -9.49,0.05 -14.09,-0.05c-0.51,-0.01 -1.23,-0.84 -1.47,-1.44c-1.32,-3.21 -2.55,-6.45 -3.71,-9.71c-0.44,-1.23 -1.05,-1.75 -2.42,-1.75c-9.24,0.06 -18.47,0.06 -27.71,0.01c-1.42,-0.01 -2.09,0.45 -2.57,1.84c-1.17,3.33 -2.55,6.6 -3.92,9.86c-0.23,0.51 -0.87,1.18 -1.35,1.2c-4.61,0.1 -9.21,0.05 -14.14,0.05c1.58,-4.01 3.01,-7.74 4.52,-11.46c7.53,-18.71 15.1,-37.4 22.59,-56.12c0.53,-1.33 1.18,-1.83 2.58,-1.78c4.13,0.08 8.27,0.05 12.39,0.02c1.06,0 1.76,0.17 2.24,1.37c8.87,22.21 17.78,44.41 26.69,66.61c0.1,0.32 0.17,0.66 0.38,1.37zM308.79,116.85c-3.64,9.62 -7.24,19.15 -10.91,28.89h21.91c-3.71,-9.72 -7.33,-19.28 -11.01,-28.89zM81.54,171.15h-14.55v-69.17c4.48,0 8.87,-0.04 13.23,0.05c0.46,0.01 0.99,0.68 1.34,1.16c9.08,12.87 18.13,25.77 27.18,38.66c1.09,1.54 2.2,3.06 3.56,4.95v-44.74h14.42v69.19c-4.41,0 -8.79,0.05 -13.16,-0.06c-0.5,-0.01 -1.09,-0.79 -1.47,-1.33c-9.72,-13.81 -19.42,-27.63 -29.12,-41.45c-0.33,-0.48 -0.74,-0.92 -1.41,-1.72zM32.91,102.05h14.4v69.04h-14.4zM193.59,166.9c0,0.58 -0.75,1.49 -1.36,1.73c-7.94,4.27 -21.58,5.54 -32.75,2.49c-13.04,-3.56 -21.64,-11.83 -24.24,-25.44c-2.29,-11.91 -0.78,-23.3 7.49,-32.86c4.98,-5.74 11.46,-8.91 18.72,-10.55c9.84,-2.2 19.37,-0.98 28.73,2.58c1.47,0.56 1.95,1.36 1.89,2.94c-0.12,3.77 -0.05,7.55 -0.05,11.64c-0.79,-0.36 -1.26,-0.55 -1.73,-0.78c-8.51,-4.34 -17.34,-5.69 -26.55,-2.77c-9.65,3.06 -15.23,11.67 -14.6,21.96c0.35,5.38 1.41,10.46 4.98,14.64c4.06,4.76 9.5,6.68 15.45,7.18c2.81,0.23 4.76,0.22 6.47,-0.1c2.32,-0.45 3.67,-0.46 3.73,-4.19c-0.07,-3.19 -0.08,-6.66 -0.08,-10.14h-11.74v-13.4h11.76v-0.04c3.41,0 6.69,-0.01 9.92,0.04h1.82v0.01c0.37,0.02 0.74,0.01 1.11,0.02c0.91,0 1.02,0.88 1.02,1.37c0.06,10.49 0.06,23.15 -0.01,33.66z">
  </path>
  <path id="Path 2" class="shp1" d="M14.42,189.58v-112.01l97.89,-52.53v58.5h14.41v-82.61l-126.72,68v135.06h126.72v-14.42z">
  </path>
 </g>
</svg>