<svg viewBox="0 0 706.53 109.15" xmlns="http://www.w3.org/2000/svg"><path d="m0 144.75h706.51v109.15h-706.51z" fill="#007bfc"/><path d="m0 198.51c0-6.05 0-9.08.28-11.62 2.4-22.05 19.81-39.46 41.86-41.86 2.55-.28 5.57-.28 11.62-.28s9.08 0 11.62.28c22.05 2.4 39.46 19.81 41.86 41.86.28 2.55.28 5.57.28 11.62v1.63c0 6.05 0 9.08-.28 11.62-2.4 22.05-19.81 39.46-41.86 41.86-2.55.28-5.57.28-11.62.28s-9.08 0-11.62-.28c-22.05-2.4-39.46-19.81-41.86-41.86-.28-2.55-.28-5.57-.28-11.62z" fill="#fff"/><path d="m34.36 223.71c-.5.5-.5 1.3 0 1.79l9.87 9.87c.5.5 1.3.5 1.79 0l34.36-34.36c.5-.5.5-1.3 0-1.79l-9.87-9.87c-.5-.5-1.3-.5-1.79 0zm11.66-58.86c-.5-.5-1.3-.5-1.79 0l-9.88 9.88c-.5.5-.5 1.3 0 1.79l18.53 18.53c.5.5 1.3.5 1.79 0l9.88-9.88c.5-.5.5-1.3 0-1.79 0 0-18.53-18.53-18.53-18.53z" fill="#007bfc" fill-rule="evenodd"/><path d="m301.73 163.92h25.22l20.33 53.9 20.18-53.9h24.34v71.87h-16.18v-54.94l-21.06 54.94h-16.62l-21.07-54.65v54.65h-15.13v-71.87z" fill="#fff"/><path d="m497.44 163.92h55.64v71.87h-17.21v-56.72h-22.7c-.15 10.1-.44 23.61-.74 31.18-.6 18.86-6.08 25.54-22.26 25.54h-7.71v-15.15h4.3c7.27 0 9.64-3.27 10.09-13.51.44-10.99.59-32.82.59-43.21z" fill="#fff"/><path d="m641.1 163.92h65.43v15.14h-24.18v56.73h-17.07v-56.73h-24.18z" fill="#fff"/><path d="m247.52 223.25c-6.74-.19-10.64-4.09-10.64-9.03 0-4.09 1.84-6.09 4.27-7.51 2.55-1.49 5.87-2 11.02-2.19 4.95-.18 8.98-.39 16.66-.39 0 12.27-7.71 18.43-17.28 19.08-1.51.1-2.44.08-4.02.04zm9.67-60.81h-6.16c-14.8 0-26.02 9.01-28.59 22.41l15.73 2.52c2.15-6.39 7.09-10.74 13.34-11.03 2.02-.1 1.54-.07 3.56 0 9.29.34 13.49 4.79 13.49 15.8-17.61 0-29.64-.83-38.5 5.01-7.23 4.77-10.33 10.06-10.33 18.42 0 12.1 9.41 21.69 24.59 21.69h2.09c10.73 0 19.39-4.18 22.91-9.23v7.74h15.84v-43.32c0-16.71-8.94-30.04-27.99-30.04z" fill="#fff"/><path d="m599.79 176.34c1.8-.1 2.44-.1 4.25 0 7.5.38 15.4 5.25 16.16 14.95h-36.94c.86-8.65 7.8-14.47 16.54-14.95zm37.32 28.37v-6.73c0-23.19-14.56-35.19-33.36-35.19h-3.68c-20.23 0-33.13 13.8-33.8 33.28-.09 2.85-.09 4.04 0 7.94.48 19.39 14.05 32.44 32.19 32.91 3.32.1 2.9.09 6.03 0 15.79-.44 27.75-9.57 31.28-21.49l-15.28-2.67c-3.73 7.47-10.86 10.34-16.55 10.62-1.8.1-2.06.07-3.86 0-8.93-.37-16.92-7.37-16.92-17.54v-1.14h53.95z" fill="#fff"/><path d="m460.84 205.24c-.2 10.16-7.58 17.05-17.51 17.55-1.91.1-1.79.1-3.69 0-10.03-.5-17.31-7.4-17.51-17.55-.1-4.22-.1-6.62 0-10.84.2-10.06 7.48-16.95 17.51-17.45 1.91-.1 1.79-.1 3.69 0 9.93.5 17.31 7.4 17.51 17.55.1 4.22.1 6.52 0 10.74zm16.92-11.73c-.38-17.39-14.4-30.71-32.92-30.71h-6.71c-18.53 0-32.54 13.32-32.92 30.8-.1 4.85-.1 7.67 0 12.52.38 17.49 14.4 30.8 32.92 30.8h6.71c18.53 0 32.54-13.32 32.92-30.8.1-4.85.1-7.76 0-12.61z" fill="#fff"/><path d="m193.06 210.43c-2 6.66-7.35 11.23-14.55 12.23-2.07.29-4.13.22-5.8 0-8.95-1.25-15.25-7.97-15.44-17.41-.1-4.22-.1-6.62 0-10.84.19-9.51 6.8-16.47 15.91-17.44.53-.06 2.51-.24 4.43-.03 7.67.83 13.44 5.43 15.51 12.43l16.67-3.23c-3.58-13.64-15.94-23.33-31.74-23.33h-4.79c-18.53 0-32.54 13.32-32.92 30.8-.1 4.85-.1 7.67 0 12.52.39 17.49 14.4 30.8 32.92 30.8h4.79c16.1 0 28.58-10.07 31.88-24.19l-16.88-2.31z" fill="#fff"/><path d="m0 53.76c0-6.05 0-9.08.28-11.62 2.39-22.05 19.81-39.47 41.86-41.86 2.55-.28 5.57-.28 11.62-.28s9.08 0 11.62.28c22.05 2.4 39.46 19.81 41.86 41.86.28 2.55.28 5.57.28 11.62v1.63c0 6.05 0 9.08-.28 11.62-2.4 22.05-19.81 39.46-41.86 41.86-2.55.28-5.57.28-11.62.28s-9.08 0-11.62-.28c-22.05-2.39-39.47-19.8-41.86-41.85-.28-2.55-.28-5.57-.28-11.62v-1.63z" fill="#007bfc"/><path d="m34.36 78.96c-.5.5-.5 1.3 0 1.79l9.87 9.87c.5.5 1.3.5 1.79 0l34.36-34.36c.5-.5.5-1.3 0-1.79l-9.87-9.87c-.5-.5-1.3-.5-1.79 0 0 0-34.36 34.36-34.36 34.36zm11.66-58.86c-.5-.5-1.3-.5-1.79 0l-9.88 9.88c-.5.5-.5 1.3 0 1.79l18.53 18.53c.5.5 1.3.5 1.79 0l9.88-9.88c.5-.5.5-1.3 0-1.79 0 0-18.53-18.53-18.53-18.53z" fill="#fff" fill-rule="evenodd"/><g fill="#007bfc"><path d="m301.73 19.17h25.22l20.33 53.9 20.18-53.9h24.34v71.87h-16.18v-54.94l-21.06 54.94h-16.62l-21.07-54.65v54.65h-15.13v-71.87z"/><path d="m497.44 19.17h55.64v71.87h-17.21v-56.72h-22.7c-.15 10.1-.44 23.61-.74 31.18-.6 18.86-6.08 25.54-22.26 25.54h-7.71v-15.15h4.3c7.27 0 9.64-3.27 10.09-13.51.44-10.99.59-32.82.59-43.21z"/><path d="m641.1 19.17h65.43v15.15h-24.18v56.72h-17.07v-56.72h-24.18z"/><path d="m247.52 78.5c-6.74-.19-10.64-4.09-10.64-9.03 0-4.09 1.84-6.09 4.27-7.51 2.55-1.49 5.87-2 11.02-2.19 4.95-.18 8.98-.39 16.66-.39 0 12.27-7.71 18.43-17.28 19.08-1.51.1-2.44.08-4.02.04zm9.67-60.81h-6.16c-14.8 0-26.02 9.01-28.59 22.41l15.73 2.52c2.15-6.39 7.09-10.74 13.34-11.03 2.02-.1 1.54-.07 3.56 0 9.29.34 13.49 4.79 13.49 15.8-17.61 0-29.64-.83-38.5 5.01-7.23 4.77-10.33 10.06-10.33 18.42 0 12.1 9.41 21.69 24.59 21.69h2.09c10.73 0 19.39-4.18 22.91-9.23v7.74h15.84v-43.32c0-16.71-8.94-30.04-27.99-30.04l.02.03z"/><path d="m599.79 31.59c1.8-.1 2.44-.1 4.25 0 7.5.38 15.4 5.25 16.16 14.95h-36.94c.86-8.65 7.8-14.47 16.54-14.95zm37.32 28.37v-6.73c0-23.19-14.56-35.19-33.36-35.19h-3.68c-20.23 0-33.13 13.8-33.8 33.28-.09 2.85-.09 4.04 0 7.94.48 19.39 14.05 32.44 32.19 32.91 3.32.1 2.9.09 6.03 0 15.79-.44 27.75-9.57 31.28-21.49l-15.28-2.67c-3.73 7.47-10.86 10.34-16.55 10.62-1.8.1-2.06.07-3.86 0-8.93-.37-16.92-7.37-16.92-17.54v-1.14h53.95z"/><path d="m460.84 60.49c-.2 10.16-7.58 17.05-17.51 17.55-1.91.1-1.79.1-3.69 0-10.03-.5-17.31-7.4-17.51-17.55-.1-4.22-.1-6.62 0-10.84.2-10.06 7.48-16.95 17.51-17.45 1.91-.1 1.79-.1 3.69 0 9.93.5 17.31 7.4 17.51 17.55.1 4.22.1 6.52 0 10.74zm16.92-11.73c-.38-17.39-14.4-30.71-32.92-30.71h-6.71c-18.53 0-32.54 13.32-32.92 30.8-.1 4.85-.1 7.67 0 12.52.38 17.49 14.4 30.8 32.92 30.8h6.71c18.53 0 32.54-13.32 32.92-30.8.1-4.85.1-7.76 0-12.61z"/><path d="m193.06 65.68c-2 6.66-7.35 11.23-14.55 12.23-2.07.29-4.13.22-5.8-.01-8.95-1.25-15.25-7.97-15.44-17.41-.1-4.22-.1-6.62 0-10.84.19-9.51 6.8-16.47 15.91-17.44.53-.06 2.51-.24 4.43-.03 7.67.83 13.44 5.43 15.51 12.43l16.67-3.23c-3.58-13.64-15.94-23.33-31.74-23.33h-4.79c-18.53 0-32.54 13.32-32.92 30.8-.1 4.85-.1 7.67 0 12.52.39 17.49 14.4 30.8 32.92 30.8h4.79c16.1 0 28.58-10.07 31.88-24.19l-16.88-2.31h.01z"/></g></svg>